# xmcd
#
# Track frame offsets:
#	150
#	15210
#	30932
#	41761
#	52829
#	65375
#	78040
#	89521
#	101832
#	113681
#	127158
#	139934
#	153125
#	166271
#	178855
#	193286
#	207139
#	218946
#	230917
#	243108
#
# Disc length: 3401 seconds
#
# Revision: 0
# Processed by: cddbd v1.5.2PL0 Copyright (c) Steve Scherf et al.
# Submitted via: audiograbber 1.83.01
#
DISCID=0a0d4714
DTITLE=Various Artist - Boogie Box Vol. 02
DYEAR=19
DGENRE=Boo/
TTITLE0=Johnson Pete - Shuffle Boogie
TTITLE1=Shaw Artie - Meade Lux Special Boogie
TTITLE2=Ammons Albert - Shout for Joy Boogie
TTITLE3=Porter King - Chitlin' Ball Boogie
TTITLE4=Johnson Pete - Roll 'em Pete Boogie
TTITLE5=Yancey Jimmy - Yancey Stomp Boogie
TTITLE6=Williams Mary Lou - Mary's Boogie
TTITLE7=Lyman Abe - Horse 'n' Boogie
TTITLE8=Sullivan Joe - Boogie Woogie Maxixe
TTITLE9=Yancey Jimmy - The Fives Boogie
TTITLE10=Hodes Art - Ross Tavern Boogie
TTITLE11=Hill Honey - Boogie Woogie
TTITLE12=Johnson Pete - Boo Woo Boogie
TTITLE13=Zurke Bob - Honky Tonk Train Boogie
TTITLE14=Herman Woody - Woodchopper's Ball Boogie
TTITLE15=Yancey Jimmy - South Side Stuff Boogie
TTITLE16=Armstrong Louis - Boog it
TTITLE17=Andrew Sisters - Rhumboogie
TTITLE18=Hines Earl - Boogie Woogie on St. Louis Blues
TTITLE19=Faure Rene - Honky Tonk Boogie
EXTD=
EXTT0=
EXTT1=
EXTT2=
EXTT3=
EXTT4=
EXTT5=
EXTT6=
EXTT7=
EXTT8=
EXTT9=
EXTT10=
EXTT11=
EXTT12=
EXTT13=
EXTT14=
EXTT15=
EXTT16=
EXTT17=
EXTT18=
EXTT19=
PLAYORDER=
